# xmcd
#
# Track frame offsets:
#	150
#	17378
#	32829
#	50221
#	62392
#	76928
#	90719
#	109253
#	122927
#	133625
#
# Disc length: 2055 seconds
#
# Revision: 1
# Processed by: cddbd v1.5.2PL0 Copyright (c) Steve Scherf et al.
# Submitted via: EZCDAudioConverter 4.0.2.1
#
DISCID=7f08050a
DTITLE=Emmylou Harris - Evangeline
DYEAR=1981
DGENRE=Country
TTITLE0=I Don't Have to Crawl
TTITLE1=How High the Moon
TTITLE2=Spanish Johnny
TTITLE3=Bad Moon Rising
TTITLE4=Evangeline
TTITLE5=Hot Burrito No. 2
TTITLE6=Millworker
TTITLE7=Oh, Atlanta
TTITLE8=Mr. Sandman
TTITLE9=Ashes By Now
EXTD=
EXTT0=
EXTT1=
EXTT2=
EXTT3=
EXTT4=
EXTT5=
EXTT6=
EXTT7=
EXTT8=
EXTT9=
PLAYORDER=
